<?xml version="1.0" encoding="utf-8"?>

<!-- Uploaded to: SVG Repo, www.svgrepo.com, Generator: SVG Repo Mixer Tools -->
<svg height="800px" width="800px" version="1.1" id="Icons" xmlns="http://www.w3.org/2000/svg" xmlns:xlink="http://www.w3.org/1999/xlink" 
	 viewBox="0 0 32 32" xml:space="preserve" fill="#d3992e">
<style type="text/css">
	.st0{fill:#FFFFFF;}
</style>
<path d="M30.4,6.5c-0.2-1.1-0.8-2.3-1.7-3.2c-0.9-0.9-2-1.5-3.2-1.7c-1.2-0.2-2.4,0.2-3.2,1c0,0,0,0,0,0c0,0,0,0,0,0
	c-2.8,3.3-5.8,6.5-8.9,9.6c-0.2,0-0.5,0-0.7,0.1c-0.4,0.2-0.5,0.6-0.4,1c-3.1,3.1-6.3,6.1-9.7,9c-0.8,0.8-1.1,1.9-1,3.2
	c0.2,1.1,0.8,2.3,1.7,3.2c0.9,0.9,2,1.5,3.2,1.7c0.2,0,0.4,0,0.6,0c1,0,1.9-0.4,2.6-1.1c2.4-2.7,4.8-5.3,7.3-7.9V25c0,0.6,0.4,1,1,1
	s1-0.4,1-1v-4.9c0.7,1,1,2.4,1,4.4V29c0,0.6,0.4,1,1,1s1-0.4,1-1v-4.5c0-1.9-0.2-4.4-1.9-6.2c3-3,6.1-5.9,9.3-8.6c0,0,0,0,0,0
	c0,0,0,0,0,0C30.2,8.9,30.6,7.7,30.4,6.5z M25.5,10.4c-2.4,2.2-4.8,4.4-7.1,6.7c-0.1,0-0.2-0.1-0.3-0.1c-1.1-0.9-2.5-2.2-3.4-3.3
	c2.3-2.4,4.6-4.8,6.8-7.2c0.3,0.9,0.8,1.8,1.5,2.5C23.8,9.6,24.6,10.2,25.5,10.4z M8.2,28c-0.5,0.5-1.1,0.4-1.5,0.4
	c-0.7-0.1-1.5-0.5-2.1-1.1c-0.6-0.6-1-1.3-1.1-2.1c-0.1-0.4-0.1-1,0.3-1.4c3.2-2.8,6.4-5.7,9.4-8.7c1.1,1.3,2.5,2.6,3.6,3.5
	C13.9,21.7,11,24.8,8.2,28z"/>
</svg>